<svg xmlns="http://www.w3.org/2000/svg" width="1280" height="640" fill="none" viewBox="0 0 1280 640"><path fill="#1FAECE" fill-rule="evenodd" d="M799.743 46.8159C792.583 42.4324 784.241 40 775.552 40L505.383 40C496.695 40 488.353 42.4324 481.193 46.8158C474.721 50.7776 469.214 56.3331 465.287 63.1271L330.203 296.873C325.816 304.464 323.756 312.988 324.023 321.457C324.259 328.954 326.319 336.407 330.203 343.127L465.287 576.873C469.214 583.667 474.721 589.222 481.193 593.184C488.353 597.568 496.695 600 505.384 600L775.552 600C784.241 600 792.583 597.568 799.744 593.184C806.215 589.222 811.722 583.667 815.649 576.873L950.733 343.127C954.617 336.407 956.677 328.954 956.913 321.457C957.18 312.988 955.12 304.464 950.733 296.873L815.649 63.1271C811.722 56.3331 806.215 50.7776 799.743 46.8159ZM544.76 158.148H812.384C817.453 158.148 822.316 160.278 825.901 164.07C829.486 167.862 831.5 173.005 831.5 178.367V380.555C831.5 385.917 829.486 391.06 825.901 394.852C822.316 398.643 817.453 400.774 812.384 400.774H735.92V198.586H621.224V239.023H525.644V178.367C525.644 173.005 527.658 167.862 531.243 164.07C534.828 160.278 539.69 158.148 544.76 158.148ZM586.196 227.248C587.205 226.182 587.771 224.735 587.771 223.227V204.272C587.771 202.764 587.205 201.318 586.196 200.251C585.188 199.185 583.821 198.586 582.395 198.586H564.474C563.048 198.586 561.68 199.185 560.672 200.251C559.664 201.318 559.097 202.764 559.097 204.272V223.227C559.097 224.735 559.664 226.182 560.672 227.248C561.68 228.315 563.048 228.914 564.474 228.914H582.395C583.821 228.914 585.188 228.315 586.196 227.248ZM796.472 358.67C797.48 357.604 798.047 356.158 798.047 354.649V335.694C798.047 334.186 797.48 332.74 796.472 331.673C795.464 330.607 794.096 330.008 792.67 330.008H774.749C773.323 330.008 771.956 330.607 770.947 331.673C769.939 332.74 769.373 334.186 769.373 335.694V354.649C769.373 356.158 769.939 357.604 770.947 358.67C771.956 359.737 773.323 360.336 774.749 360.336H792.67C794.096 360.336 795.464 359.737 796.472 358.67ZM796.472 292.959C797.48 291.893 798.047 290.447 798.047 288.938V269.983C798.047 268.475 797.48 267.029 796.472 265.962C795.464 264.896 794.096 264.297 792.67 264.297H774.749C773.323 264.297 771.956 264.896 770.947 265.962C769.939 267.029 769.373 268.475 769.373 269.983V288.938C769.373 290.447 769.939 291.893 770.947 292.959C771.956 294.026 773.323 294.625 774.749 294.625H792.67C794.096 294.625 795.464 294.026 796.472 292.959ZM796.472 227.248C797.48 226.182 798.047 224.735 798.047 223.227V204.272C798.047 202.764 797.48 201.318 796.472 200.251C795.464 199.185 794.096 198.586 792.67 198.586H774.749C773.323 198.586 771.956 199.185 770.947 200.251C769.939 201.318 769.373 202.764 769.373 204.272V223.227C769.373 224.735 769.939 226.182 770.947 227.248C771.956 228.315 773.323 228.914 774.749 228.914H792.67C794.096 228.914 795.464 228.315 796.472 227.248ZM468.297 259.242H697.688C702.758 259.242 707.62 261.372 711.205 265.164C714.79 268.956 716.804 274.098 716.804 279.461V461.43C716.804 466.792 714.79 471.935 711.205 475.727C707.62 479.518 702.758 481.649 697.688 481.649H468.297C463.227 481.649 458.364 479.518 454.78 475.727C451.195 471.935 449.181 466.792 449.181 461.43V279.461C449.181 274.098 451.195 268.956 454.78 265.164C458.364 261.372 463.227 259.242 468.297 259.242ZM517.149 303.087C514.005 300.865 510.309 299.68 506.528 299.68C501.459 299.68 496.596 301.81 493.011 305.602C489.426 309.393 487.412 314.536 487.412 319.898C487.412 323.897 488.534 327.806 490.634 331.131C492.735 334.456 495.72 337.048 499.213 338.578C502.706 340.108 506.55 340.509 510.258 339.729C513.966 338.949 517.372 337.023 520.045 334.195C522.719 331.368 524.539 327.765 525.277 323.843C526.015 319.921 525.636 315.855 524.189 312.161C522.742 308.466 520.292 305.309 517.149 303.087ZM487.412 441.211H678.572V380.555L621.224 319.898L544.76 400.774L525.644 380.555L487.412 420.992V441.211Z" clip-rule="evenodd"/></svg>