<svg xmlns="http://www.w3.org/2000/svg" width="456" height="456" fill="none" viewBox="0 0 456 456"><path fill="#fff" d="M203.991 186.836C204.437 186.364 204.688 185.724 204.688 185.057V176.671C204.688 176.004 204.437 175.364 203.991 174.893C203.545 174.421 202.94 174.156 202.31 174.156H194.382C193.751 174.156 193.146 174.421 192.7 174.893C192.254 175.364 192.003 176.004 192.003 176.671V185.057C192.003 185.724 192.254 186.364 192.7 186.836C193.146 187.307 193.751 187.572 194.382 187.572H202.31C202.94 187.572 203.545 187.307 203.991 186.836Z"/><path fill="#fff" d="M297.014 244.974C297.46 244.503 297.71 243.863 297.71 243.196V234.81C297.71 234.143 297.46 233.503 297.014 233.031C296.568 232.56 295.963 232.295 295.332 232.295H287.404C286.773 232.295 286.168 232.56 285.722 233.031C285.276 233.503 285.025 234.143 285.025 234.81V243.196C285.025 243.863 285.276 244.503 285.722 244.974C286.168 245.446 286.773 245.711 287.404 245.711H295.332C295.963 245.711 296.568 245.446 297.014 244.974Z"/><path fill="#fff" d="M297.014 215.905C297.46 215.433 297.71 214.793 297.71 214.126V205.741C297.71 205.074 297.46 204.434 297.014 203.962C296.568 203.49 295.963 203.225 295.332 203.225H287.404C286.773 203.225 286.168 203.49 285.722 203.962C285.276 204.434 285.025 205.074 285.025 205.741V214.126C285.025 214.793 285.276 215.433 285.722 215.905C286.168 216.377 286.773 216.642 287.404 216.642H295.332C295.963 216.642 296.568 216.377 297.014 215.905Z"/><path fill="#fff" d="M297.014 186.836C297.46 186.364 297.71 185.724 297.71 185.057V176.671C297.71 176.004 297.46 175.364 297.014 174.893C296.568 174.421 295.963 174.156 295.332 174.156H287.404C286.773 174.156 286.168 174.421 285.722 174.893C285.276 175.364 285.025 176.004 285.025 176.671V185.057C285.025 185.724 285.276 186.364 285.722 186.836C286.168 187.307 286.773 187.572 287.404 187.572H295.332C295.963 187.572 296.568 187.307 297.014 186.836Z"/><path fill="#fff" d="M173.446 220.385C172.055 219.403 170.42 218.878 168.748 218.878C166.505 218.878 164.354 219.82 162.768 221.498C161.182 223.175 160.291 225.45 160.291 227.822C160.291 229.591 160.787 231.321 161.716 232.792C162.645 234.263 163.966 235.409 165.511 236.086C167.057 236.763 168.757 236.94 170.397 236.595C172.038 236.25 173.545 235.398 174.727 234.147C175.91 232.896 176.715 231.302 177.042 229.567C177.368 227.832 177.2 226.034 176.56 224.4C175.92 222.765 174.836 221.368 173.446 220.385Z"/><path fill="#fff" d="M160.291 281.489H244.857V254.656L219.487 227.822L185.661 263.6L177.204 254.656L160.291 272.545V281.489Z"/><path fill="#fff" fill-rule="evenodd" d="M298.461 107.015C295.293 105.076 291.603 104 287.759 104H168.241C164.397 104 160.707 105.076 157.539 107.015C154.676 108.768 152.24 111.225 150.503 114.231L90.7441 217.636C88.8034 220.994 87.8921 224.765 88.0101 228.512C88.1146 231.828 89.0259 235.125 90.7441 238.098L150.503 341.503C152.24 344.509 154.676 346.967 157.539 348.719C160.707 350.658 164.397 351.734 168.241 351.734L287.759 351.734C291.603 351.734 295.293 350.658 298.461 348.719C301.324 346.967 303.76 344.509 305.497 341.503L365.256 238.098C366.974 235.125 367.885 231.828 367.99 228.512C368.108 224.765 367.197 220.994 365.256 217.636L305.497 114.231C303.76 111.225 301.324 108.768 298.461 107.015ZM185.661 156.267H304.053C306.295 156.267 308.446 157.209 310.032 158.887C311.618 160.564 312.509 162.839 312.509 165.211V254.656C312.509 257.028 311.618 259.303 310.032 260.98C308.446 262.658 306.295 263.6 304.053 263.6H270.226V174.156H219.487V192.045H177.204V165.211C177.204 162.839 178.095 160.564 179.681 158.887C181.267 157.209 183.418 156.267 185.661 156.267ZM151.834 200.989H253.313C255.556 200.989 257.707 201.931 259.293 203.609C260.879 205.286 261.77 207.561 261.77 209.934V290.434C261.77 292.806 260.879 295.081 259.293 296.758C257.707 298.436 255.556 299.378 253.313 299.378H151.834C149.592 299.378 147.441 298.436 145.855 296.758C144.269 295.081 143.378 292.806 143.378 290.434V209.934C143.378 207.561 144.269 205.286 145.855 203.609C147.441 201.931 149.592 200.989 151.834 200.989Z" clip-rule="evenodd"/></svg>